<svg width="372" height="47" viewBox="0 0 372 47" fill="none" xmlns="http://www.w3.org/2000/svg">
<path d="M33.176 35.888C32.312 36.88 31.384 37.584 30.392 38C29.4 38.448 28.2 38.672 26.792 38.672C24.936 38.672 23.464 38.288 22.376 37.52C21.32 36.72 20.632 35.376 20.312 33.488L19.448 28.688C19.032 26.352 18.52 24.64 17.912 23.552C17.336 22.432 16.36 21.872 14.984 21.872H11.864V32.912C11.864 34.128 11.944 35.008 12.104 35.552C12.296 36.096 12.632 36.464 13.112 36.656C13.592 36.848 14.376 36.976 15.464 37.04V38C13.736 37.904 11.32 37.856 8.21602 37.856C4.79202 37.856 2.26402 37.904 0.632019 38V37.04C1.68802 36.976 2.45602 36.848 2.93602 36.656C3.44802 36.464 3.78402 36.096 3.94402 35.552C4.13602 35.008 4.23202 34.128 4.23202 32.912V9.10402C4.23202 7.88802 4.13602 7.00802 3.94402 6.46402C3.78402 5.92002 3.44802 5.55202 2.93602 5.36002C2.45602 5.16802 1.68802 5.04002 0.632019 4.97602V4.01602C2.26402 4.11202 4.69602 4.16002 7.92802 4.16002L13.256 4.11202C13.896 4.08002 14.632 4.06402 15.464 4.06402C19.88 4.06402 23.192 4.78402 25.4 6.22402C27.64 7.66402 28.76 9.72802 28.76 12.416C28.76 14.688 27.928 16.688 26.264 18.416C24.6 20.144 21.848 21.232 18.008 21.68C20.888 21.936 23.032 22.56 24.44 23.552C25.848 24.544 26.76 26.032 27.176 28.016L28.28 32.96C28.536 34.24 28.824 35.136 29.144 35.648C29.496 36.16 29.976 36.416 30.584 36.416C30.968 36.384 31.288 36.288 31.544 36.128C31.832 35.968 32.152 35.696 32.504 35.312L33.176 35.888ZM14.84 4.97602C13.976 4.97602 13.336 5.08802 12.92 5.31202C12.536 5.53602 12.264 5.93602 12.104 6.51202C11.944 7.08802 11.864 7.95202 11.864 9.10402V20.912H13.928C16.552 20.912 18.344 20.224 19.304 18.848C20.296 17.44 20.792 15.472 20.792 12.944C20.792 10.32 20.328 8.33602 19.4 6.99202C18.472 5.64802 16.952 4.97602 14.84 4.97602Z" fill="#141414"/>
<path d="M39.7224 38.336C37.6744 38.336 36.1384 37.808 35.1144 36.752C34.1224 35.696 33.6264 34.304 33.6264 32.576C33.6264 31.136 33.9944 29.952 34.7304 29.024C35.4984 28.064 36.4104 27.328 37.4664 26.816C38.5544 26.304 39.9304 25.76 41.5944 25.184C43.3544 24.576 44.6344 24.032 45.4344 23.552C46.2664 23.04 46.6824 22.352 46.6824 21.488V17.744C46.6824 16.4 46.3624 15.36 45.7224 14.624C45.1144 13.856 44.1544 13.472 42.8424 13.472C41.3064 13.472 40.1384 13.856 39.3384 14.624C40.2344 14.944 40.9224 15.424 41.4024 16.064C41.9144 16.704 42.1704 17.456 42.1704 18.32C42.1704 19.408 41.8024 20.272 41.0664 20.912C40.3304 21.552 39.4344 21.872 38.3784 21.872C37.2584 21.872 36.3944 21.52 35.7864 20.816C35.1784 20.112 34.8744 19.232 34.8744 18.176C34.8744 17.28 35.0824 16.528 35.4984 15.92C35.9464 15.28 36.6184 14.688 37.5144 14.144C38.3784 13.632 39.4344 13.232 40.6824 12.944C41.9624 12.656 43.3544 12.512 44.8584 12.512C46.4264 12.512 47.7864 12.672 48.9384 12.992C50.0904 13.312 51.0504 13.856 51.8184 14.624C52.5224 15.328 52.9864 16.192 53.2104 17.216C53.4664 18.24 53.5944 19.632 53.5944 21.392V34.448C53.5944 35.216 53.6584 35.76 53.7864 36.08C53.9464 36.4 54.2344 36.56 54.6504 36.56C55.1304 36.56 55.7064 36.288 56.3784 35.744L56.8584 36.56C55.4184 37.744 53.6584 38.336 51.5784 38.336C49.8184 38.336 48.5864 37.984 47.8824 37.28C47.1784 36.576 46.8104 35.632 46.7784 34.448C45.1784 37.04 42.8264 38.336 39.7224 38.336ZM43.4184 35.264C44.6664 35.264 45.7544 34.608 46.6824 33.296V23.456C46.2984 24.096 45.4824 24.8 44.2344 25.568C42.9864 26.368 42.0424 27.168 41.4024 27.968C40.7624 28.768 40.4424 29.92 40.4424 31.424C40.4424 32.736 40.7144 33.712 41.2584 34.352C41.8024 34.96 42.5224 35.264 43.4184 35.264Z" fill="#141414"/>
<path d="M70.9021 0.464015C72.8861 0.464015 74.5981 0.992016 76.0381 2.04802C76.5181 2.43202 76.9021 2.94402 77.1901 3.58402C77.5101 4.19202 77.6701 4.88002 77.6701 5.64802C77.6701 6.54402 77.3501 7.32802 76.7101 8.00002C76.0701 8.64002 75.2541 8.96002 74.2621 8.96002C73.1741 8.96002 72.2941 8.65602 71.6221 8.04802C70.9501 7.44002 70.6141 6.60802 70.6141 5.55202C70.6141 4.72002 70.8541 3.98402 71.3341 3.34402C71.8141 2.70402 72.5181 2.25602 73.4461 2.00002C73.3501 1.80802 73.1421 1.64802 72.8221 1.52002C72.5341 1.39202 72.1661 1.32802 71.7181 1.32802C70.5021 1.32802 69.6381 1.74402 69.1261 2.57602C68.7741 3.05602 68.5341 3.76002 68.4061 4.68802C68.2781 5.61602 68.2141 7.00802 68.2141 8.86402V13.232H73.3501V14.192H68.2141V33.056C68.2141 34.528 68.5821 35.552 69.3181 36.128C70.0861 36.704 71.2221 36.992 72.7261 36.992V38L71.3821 37.952C67.8301 37.856 65.5261 37.808 64.4701 37.808C63.5101 37.808 61.4301 37.872 58.2301 38V36.992C59.3821 36.992 60.1821 36.752 60.6301 36.272C61.0781 35.76 61.3021 34.848 61.3021 33.536V14.192H58.0381V13.232H61.3021C61.3021 10.448 61.5261 8.30402 61.9741 6.80002C62.4221 5.26402 63.2061 3.95202 64.3261 2.86402C65.0301 2.16002 65.9741 1.58402 67.1581 1.13602C68.3421 0.688016 69.5901 0.464015 70.9021 0.464015Z" fill="#141414"/>
<path d="M81.4411 38.336C79.3931 38.336 77.8571 37.808 76.8331 36.752C75.8411 35.696 75.3451 34.304 75.3451 32.576C75.3451 31.136 75.7131 29.952 76.4491 29.024C77.2171 28.064 78.1291 27.328 79.1851 26.816C80.2731 26.304 81.6491 25.76 83.3131 25.184C85.0731 24.576 86.3531 24.032 87.1531 23.552C87.9851 23.04 88.4011 22.352 88.4011 21.488V17.744C88.4011 16.4 88.0811 15.36 87.4411 14.624C86.8331 13.856 85.8731 13.472 84.5611 13.472C83.0251 13.472 81.8571 13.856 81.0571 14.624C81.9531 14.944 82.6411 15.424 83.1211 16.064C83.6331 16.704 83.8891 17.456 83.8891 18.32C83.8891 19.408 83.5211 20.272 82.7851 20.912C82.0491 21.552 81.1531 21.872 80.0971 21.872C78.9771 21.872 78.1131 21.52 77.5051 20.816C76.8971 20.112 76.5931 19.232 76.5931 18.176C76.5931 17.28 76.8011 16.528 77.2171 15.92C77.6651 15.28 78.3371 14.688 79.2331 14.144C80.0971 13.632 81.1531 13.232 82.4011 12.944C83.6811 12.656 85.0731 12.512 86.5771 12.512C88.1451 12.512 89.5051 12.672 90.6571 12.992C91.8091 13.312 92.7691 13.856 93.5371 14.624C94.2411 15.328 94.7051 16.192 94.9291 17.216C95.1851 18.24 95.3131 19.632 95.3131 21.392V34.448C95.3131 35.216 95.3771 35.76 95.5051 36.08C95.6651 36.4 95.9531 36.56 96.3691 36.56C96.8491 36.56 97.4251 36.288 98.0971 35.744L98.5771 36.56C97.1371 37.744 95.3771 38.336 93.2971 38.336C91.5371 38.336 90.3051 37.984 89.6011 37.28C88.8971 36.576 88.5291 35.632 88.4971 34.448C86.8971 37.04 84.5451 38.336 81.4411 38.336ZM85.1371 35.264C86.3851 35.264 87.4731 34.608 88.4011 33.296V23.456C88.0171 24.096 87.2011 24.8 85.9531 25.568C84.7051 26.368 83.7611 27.168 83.1211 27.968C82.4811 28.768 82.1611 29.92 82.1611 31.424C82.1611 32.736 82.4331 33.712 82.9771 34.352C83.5211 34.96 84.2411 35.264 85.1371 35.264Z" fill="#141414"/>
<path d="M114.061 34.736C116.685 34.736 118.797 33.456 120.397 30.896L121.261 31.184C120.621 33.264 119.469 35.04 117.805 36.512C116.173 37.952 114.125 38.672 111.661 38.672C108.269 38.672 105.565 37.6 103.549 35.456C101.565 33.28 100.573 30.08 100.573 25.856C100.573 21.536 101.645 18.24 103.789 15.968C105.933 13.664 108.781 12.512 112.333 12.512C118.349 12.512 121.357 16.064 121.357 23.168H107.869C107.837 23.648 107.821 24.4 107.821 25.424C107.821 27.536 108.109 29.296 108.685 30.704C109.293 32.112 110.061 33.136 110.989 33.776C111.949 34.416 112.973 34.736 114.061 34.736ZM112.045 13.52C110.893 13.52 109.933 14.24 109.165 15.68C108.429 17.088 107.965 19.28 107.773 22.256H115.309C115.373 19.728 115.117 17.648 114.541 16.016C113.997 14.352 113.165 13.52 112.045 13.52Z" fill="#141414"/>
<path d="M133.928 33.536C133.928 34.848 134.152 35.76 134.6 36.272C135.048 36.752 135.848 36.992 137 36.992V38C133.672 37.872 131.528 37.808 130.568 37.808C129.48 37.808 127.272 37.872 123.944 38V36.992C125.064 36.992 125.848 36.752 126.296 36.272C126.776 35.76 127.016 34.848 127.016 33.536V6.17602C127.016 4.70402 126.776 3.63202 126.296 2.96002C125.848 2.28802 125.064 1.95202 123.944 1.95202V0.944017C124.968 1.04002 125.96 1.08802 126.92 1.08802C129.704 1.08802 132.04 0.864016 133.928 0.416016V33.536Z" fill="#141414"/>
<path d="M176.547 33.968C176.963 35.024 177.443 35.792 177.987 36.272C178.531 36.752 179.059 37.008 179.571 37.04V38C177.651 37.904 175.219 37.856 172.275 37.856C169.011 37.856 166.579 37.904 164.979 38V37.04C166.195 36.976 167.059 36.832 167.571 36.608C168.083 36.352 168.339 35.92 168.339 35.312C168.339 34.736 168.147 33.968 167.763 33.008L164.883 25.136H154.419L153.171 28.448C152.275 30.752 151.827 32.528 151.827 33.776C151.827 34.96 152.179 35.792 152.883 36.272C153.619 36.72 154.691 36.976 156.099 37.04V38C153.923 37.904 151.939 37.856 150.147 37.856C148.675 37.856 147.459 37.904 146.499 38V37.04C148.067 36.752 149.443 35.072 150.627 32L161.571 3.92002C161.923 3.95202 162.483 3.96802 163.251 3.96802C164.019 3.96802 164.563 3.95202 164.883 3.92002L176.547 33.968ZM164.547 24.176L159.795 11.216L154.803 24.176H164.547Z" fill="#141414"/>
<path d="M197.618 12.512C199.282 12.512 200.754 12.96 202.034 13.856C203.346 14.752 204.37 16.096 205.106 17.888C205.842 19.68 206.21 21.872 206.21 24.464C206.21 29.04 205.202 32.56 203.186 35.024C201.202 37.456 198.498 38.672 195.074 38.672C194.114 38.672 193.202 38.544 192.338 38.288C191.506 38.032 190.786 37.648 190.178 37.136V41.936C190.178 43.344 190.53 44.32 191.234 44.864C191.938 45.408 193.026 45.68 194.498 45.68V46.688L193.202 46.64C189.65 46.544 187.394 46.496 186.434 46.496C185.474 46.496 183.458 46.56 180.386 46.688V45.68C181.442 45.68 182.178 45.44 182.594 44.96C183.042 44.512 183.266 43.664 183.266 42.416V18.416C183.266 16.944 183.026 15.872 182.546 15.2C182.098 14.528 181.314 14.192 180.194 14.192V13.184C181.218 13.28 182.21 13.328 183.17 13.328C185.954 13.328 188.29 13.104 190.178 12.656V17.072C190.85 15.6 191.826 14.48 193.106 13.712C194.386 12.912 195.89 12.512 197.618 12.512ZM193.202 37.376C195.25 37.376 196.722 36.368 197.618 34.352C198.514 32.304 198.962 29.328 198.962 25.424C198.962 21.52 198.594 18.736 197.858 17.072C197.154 15.408 196.13 14.576 194.786 14.576C193.698 14.576 192.722 14.944 191.858 15.68C191.026 16.416 190.466 17.44 190.178 18.752V36.08C190.946 36.944 191.954 37.376 193.202 37.376Z" fill="#141414"/>
<path d="M215.504 38.336C213.456 38.336 211.92 37.808 210.896 36.752C209.904 35.696 209.408 34.304 209.408 32.576C209.408 31.136 209.776 29.952 210.512 29.024C211.28 28.064 212.192 27.328 213.248 26.816C214.336 26.304 215.712 25.76 217.376 25.184C219.136 24.576 220.416 24.032 221.216 23.552C222.048 23.04 222.464 22.352 222.464 21.488V17.744C222.464 16.4 222.144 15.36 221.504 14.624C220.896 13.856 219.936 13.472 218.624 13.472C217.088 13.472 215.92 13.856 215.12 14.624C216.016 14.944 216.704 15.424 217.184 16.064C217.696 16.704 217.952 17.456 217.952 18.32C217.952 19.408 217.584 20.272 216.848 20.912C216.112 21.552 215.216 21.872 214.16 21.872C213.04 21.872 212.176 21.52 211.568 20.816C210.96 20.112 210.656 19.232 210.656 18.176C210.656 17.28 210.864 16.528 211.28 15.92C211.728 15.28 212.4 14.688 213.296 14.144C214.16 13.632 215.216 13.232 216.464 12.944C217.744 12.656 219.136 12.512 220.64 12.512C222.208 12.512 223.568 12.672 224.72 12.992C225.872 13.312 226.832 13.856 227.6 14.624C228.304 15.328 228.768 16.192 228.992 17.216C229.248 18.24 229.376 19.632 229.376 21.392V34.448C229.376 35.216 229.44 35.76 229.568 36.08C229.728 36.4 230.016 36.56 230.432 36.56C230.912 36.56 231.488 36.288 232.16 35.744L232.64 36.56C231.2 37.744 229.44 38.336 227.36 38.336C225.6 38.336 224.368 37.984 223.664 37.28C222.96 36.576 222.592 35.632 222.56 34.448C220.96 37.04 218.608 38.336 215.504 38.336ZM219.2 35.264C220.448 35.264 221.536 34.608 222.464 33.296V23.456C222.08 24.096 221.264 24.8 220.016 25.568C218.768 26.368 217.824 27.168 217.184 27.968C216.544 28.768 216.224 29.92 216.224 31.424C216.224 32.736 216.496 33.712 217.04 34.352C217.584 34.96 218.304 35.264 219.2 35.264Z" fill="#141414"/>
<path d="M250.523 12.512C251.963 12.512 253.051 12.944 253.787 13.808C254.523 14.672 254.891 15.712 254.891 16.928C254.891 18.112 254.539 19.088 253.835 19.856C253.163 20.592 252.267 20.96 251.147 20.96C250.059 20.96 249.195 20.688 248.555 20.144C247.915 19.568 247.595 18.816 247.595 17.888C247.595 16.352 248.299 15.104 249.707 14.144C249.579 14.112 249.387 14.096 249.131 14.096C248.811 14.096 248.555 14.128 248.363 14.192C247.147 14.384 246.107 15.12 245.243 16.4C244.411 17.68 243.995 18.992 243.995 20.336V33.056C243.995 34.528 244.347 35.552 245.051 36.128C245.787 36.704 246.939 36.992 248.507 36.992V38C248.059 38 247.691 37.984 247.403 37.952C244.139 37.856 241.963 37.808 240.875 37.808C240.011 37.808 238.043 37.856 234.971 37.952C234.715 37.984 234.395 38 234.011 38V36.992C235.163 36.992 235.963 36.752 236.411 36.272C236.859 35.76 237.083 34.848 237.083 33.536V18.416C237.083 16.944 236.859 15.872 236.411 15.2C235.963 14.528 235.163 14.192 234.011 14.192V13.184C235.035 13.28 236.027 13.328 236.987 13.328C239.835 13.328 242.171 13.104 243.995 12.656V17.12C244.603 15.744 245.483 14.64 246.635 13.808C247.787 12.944 249.083 12.512 250.523 12.512Z" fill="#141414"/>
<path d="M269.873 34.736C272.497 34.736 274.609 33.456 276.209 30.896L277.073 31.184C276.433 33.264 275.281 35.04 273.617 36.512C271.985 37.952 269.937 38.672 267.473 38.672C264.081 38.672 261.377 37.6 259.361 35.456C257.377 33.28 256.385 30.08 256.385 25.856C256.385 21.536 257.457 18.24 259.601 15.968C261.745 13.664 264.593 12.512 268.145 12.512C274.161 12.512 277.169 16.064 277.169 23.168H263.681C263.649 23.648 263.633 24.4 263.633 25.424C263.633 27.536 263.921 29.296 264.497 30.704C265.105 32.112 265.873 33.136 266.801 33.776C267.761 34.416 268.785 34.736 269.873 34.736ZM267.857 13.52C266.705 13.52 265.745 14.24 264.977 15.68C264.241 17.088 263.777 19.28 263.585 22.256H271.121C271.185 19.728 270.929 17.648 270.353 16.016C269.809 14.352 268.977 13.52 267.857 13.52Z" fill="#141414"/>
<path d="M292.429 12.512C293.613 12.512 294.733 12.64 295.789 12.896C296.845 13.152 297.725 13.504 298.429 13.952C299.261 14.464 299.901 15.12 300.349 15.92C300.829 16.688 301.069 17.536 301.069 18.464C301.069 19.584 300.717 20.512 300.013 21.248C299.309 21.952 298.397 22.304 297.277 22.304C296.157 22.304 295.261 21.984 294.589 21.344C293.917 20.704 293.581 19.84 293.581 18.752C293.581 17.792 293.885 16.96 294.493 16.256C295.101 15.552 295.853 15.072 296.749 14.816C296.493 14.464 296.093 14.192 295.549 14C295.037 13.776 294.477 13.664 293.869 13.664C291.949 13.664 290.445 14.72 289.357 16.832C288.301 18.912 287.773 21.648 287.773 25.04C287.773 28.464 288.381 30.928 289.597 32.432C290.813 33.936 292.333 34.688 294.157 34.688C295.245 34.688 296.333 34.4 297.421 33.824C298.541 33.248 299.549 32.24 300.445 30.8L301.261 31.088C300.621 33.168 299.501 34.96 297.901 36.464C296.301 37.936 294.237 38.672 291.709 38.672C288.413 38.672 285.725 37.584 283.645 35.408C281.565 33.232 280.525 30 280.525 25.712C280.525 22.896 281.037 20.496 282.061 18.512C283.085 16.528 284.493 15.04 286.285 14.048C288.077 13.024 290.125 12.512 292.429 12.512Z" fill="#141414"/>
<path d="M310.001 0.800016C311.345 0.800016 312.401 1.13602 313.169 1.80802C313.969 2.44802 314.369 3.34402 314.369 4.49602C314.369 5.64802 313.969 6.56002 313.169 7.23202C312.401 7.87202 311.345 8.19202 310.001 8.19202C308.657 8.19202 307.585 7.87202 306.785 7.23202C306.017 6.56002 305.633 5.64802 305.633 4.49602C305.633 3.34402 306.017 2.44802 306.785 1.80802C307.585 1.13602 308.657 0.800016 310.001 0.800016ZM313.745 33.536C313.745 34.848 313.969 35.76 314.417 36.272C314.897 36.752 315.697 36.992 316.817 36.992V38C313.617 37.872 311.489 37.808 310.433 37.808C309.441 37.808 307.217 37.872 303.761 38V36.992C304.913 36.992 305.713 36.752 306.161 36.272C306.609 35.76 306.833 34.848 306.833 33.536V18.416C306.833 16.944 306.609 15.872 306.161 15.2C305.713 14.528 304.913 14.192 303.761 14.192V13.184C304.785 13.28 305.777 13.328 306.737 13.328C309.585 13.328 311.921 13.104 313.745 12.656V33.536Z" fill="#141414"/>
<path d="M342.518 32.72C342.518 34.192 342.742 35.264 343.19 35.936C343.638 36.608 344.438 36.944 345.59 36.944V37.952C344.598 37.856 343.606 37.808 342.614 37.808C339.766 37.808 337.43 38.032 335.606 38.48V34.352C334.518 37.232 332.438 38.672 329.366 38.672C326.358 38.672 323.958 37.584 322.166 35.408C320.406 33.2 319.542 29.888 319.574 25.472C319.574 22.656 320.022 20.288 320.918 18.368C321.846 16.416 323.11 14.96 324.71 14C326.342 13.008 328.198 12.512 330.278 12.512C332.614 12.512 334.39 13.12 335.606 14.336V6.17602C335.606 4.70402 335.366 3.63202 334.886 2.96002C334.438 2.28802 333.654 1.95202 332.534 1.95202V0.944017C333.558 1.04002 334.55 1.08802 335.51 1.08802C338.294 1.08802 340.63 0.864016 342.518 0.416016V32.72ZM331.334 36.608C332.39 36.608 333.318 36.224 334.118 35.456C334.95 34.688 335.446 33.648 335.606 32.336V15.536C334.806 14.448 333.638 13.904 332.102 13.904C330.406 13.904 329.094 14.88 328.166 16.832C327.238 18.784 326.79 21.696 326.822 25.568C326.79 29.472 327.158 32.288 327.926 34.016C328.726 35.744 329.862 36.608 331.334 36.608Z" fill="#141414"/>
<path d="M359.974 12.512C363.654 12.512 366.534 13.568 368.614 15.68C370.694 17.76 371.734 21.072 371.734 25.616C371.734 30.16 370.694 33.472 368.614 35.552C366.534 37.632 363.654 38.672 359.974 38.672C356.326 38.672 353.446 37.632 351.334 35.552C349.254 33.472 348.214 30.16 348.214 25.616C348.214 21.072 349.254 17.76 351.334 15.68C353.446 13.568 356.326 12.512 359.974 12.512ZM359.974 13.472C358.598 13.472 357.494 14.48 356.662 16.496C355.862 18.48 355.462 21.52 355.462 25.616C355.462 29.712 355.862 32.752 356.662 34.736C357.494 36.72 358.598 37.712 359.974 37.712C361.382 37.712 362.486 36.736 363.286 34.784C364.086 32.8 364.486 29.744 364.486 25.616C364.486 21.488 364.07 18.432 363.238 16.448C362.438 14.464 361.35 13.472 359.974 13.472Z" fill="#141414"/>
</svg>
