<svg width="24" height="24" viewBox="0 0 24 25" fill="none" xmlns="http://www.w3.org/2000/svg">
<g clip-path="url(#clip0_8_214)">
<path d="M17.5 5.24512C15.55 5.24512 13.45 5.64095 12 6.72949C10.55 5.64095 8.45 5.24512 6.5 5.24512C5.05 5.24512 3.51 5.46283 2.22 6.02689C1.49 6.35345 1 7.05606 1 7.85762V19.0201C1 20.3066 2.22 21.2566 3.48 20.9399C4.46 20.6925 5.5 20.5837 6.5 20.5837C8.06 20.5837 9.72 20.841 11.06 21.4941C11.66 21.791 12.34 21.791 12.93 21.4941C14.27 20.8311 15.93 20.5837 17.49 20.5837C18.49 20.5837 19.53 20.6925 20.51 20.9399C21.77 21.2665 22.99 20.3165 22.99 19.0201V7.85762C22.99 7.05606 22.5 6.35345 21.77 6.02689C20.49 5.46283 18.95 5.24512 17.5 5.24512ZM21 17.8425C21 18.466 20.42 18.9212 19.8 18.8123C19.05 18.6738 18.27 18.6144 17.5 18.6144C15.8 18.6144 13.35 19.2576 12 20.0988V8.70866C13.35 7.86752 15.8 7.22429 17.5 7.22429C18.42 7.22429 19.33 7.31335 20.2 7.50137C20.66 7.60033 21 8.00606 21 8.47116V17.8425Z" fill="url(#paint0_linear_8_214)"/>
<path d="M13.98 11.6873C13.66 11.6873 13.37 11.4893 13.27 11.1727C13.14 10.7867 13.36 10.3612 13.75 10.2425C15.29 9.74768 17.28 9.58935 19.11 9.79716C19.52 9.84664 19.82 10.2128 19.77 10.6185C19.72 11.0242 19.35 11.3211 18.94 11.2716C17.32 11.0836 15.55 11.2321 14.21 11.6576C14.13 11.6675 14.05 11.6873 13.98 11.6873Z" fill="url(#paint1_linear_8_214)"/>
<path d="M13.98 14.3196C13.66 14.3196 13.37 14.1217 13.27 13.805C13.14 13.4191 13.36 12.9935 13.75 12.8748C15.28 12.38 17.28 12.2217 19.11 12.4295C19.52 12.479 19.82 12.8451 19.77 13.2508C19.72 13.6566 19.35 13.9534 18.94 13.904C17.32 13.7159 15.55 13.8644 14.21 14.2899C14.13 14.3097 14.05 14.3196 13.98 14.3196Z" fill="url(#paint2_linear_8_214)"/>
<path d="M13.98 16.9519C13.66 16.9519 13.37 16.754 13.27 16.4373C13.14 16.0514 13.36 15.6259 13.75 15.5071C15.28 15.0123 17.28 14.854 19.11 15.0618C19.52 15.1113 19.82 15.4774 19.77 15.8832C19.72 16.2889 19.35 16.5759 18.94 16.5363C17.32 16.3483 15.55 16.4967 14.21 16.9222C14.13 16.942 14.05 16.9519 13.98 16.9519Z" fill="url(#paint3_linear_8_214)"/>
</g>
<defs>
<linearGradient id="paint0_linear_8_214" x1="11.995" y1="5.24512" x2="11.995" y2="21.7167" gradientUnits="userSpaceOnUse">
<stop stop-color="#701CDA" stop-opacity="0.83"/>
<stop offset="1" stop-color="#EF39FF" stop-opacity="0.89"/>
</linearGradient>
<linearGradient id="paint1_linear_8_214" x1="16.504" y1="9.70801" x2="16.504" y2="11.6873" gradientUnits="userSpaceOnUse">
<stop stop-color="#701CDA" stop-opacity="0.83"/>
<stop offset="1" stop-color="#EF39FF" stop-opacity="0.89"/>
</linearGradient>
<linearGradient id="paint2_linear_8_214" x1="16.504" y1="12.3403" x2="16.504" y2="14.3196" gradientUnits="userSpaceOnUse">
<stop stop-color="#701CDA" stop-opacity="0.83"/>
<stop offset="1" stop-color="#EF39FF" stop-opacity="0.89"/>
</linearGradient>
<linearGradient id="paint3_linear_8_214" x1="16.504" y1="14.9727" x2="16.504" y2="16.9519" gradientUnits="userSpaceOnUse">
<stop stop-color="#701CDA" stop-opacity="0.83"/>
<stop offset="1" stop-color="#EF39FF" stop-opacity="0.89"/>
</linearGradient>
<clipPath id="clip0_8_214">
<rect width="24" height="23.75" fill="white" transform="translate(0 0.791992)"/>
</clipPath>
</defs>
</svg>
