<svg width="24" height="25" viewBox="0 0 24 25" fill="none" xmlns="http://www.w3.org/2000/svg">
<g clip-path="url(#clip0_8_224)">
<path d="M12.65 16.2567C12.79 15.9005 12.7 15.4948 12.42 15.2177L10.33 13.1791L10.36 13.1494C12.1 11.2297 13.34 9.02288 14.07 6.68746H16.01C16.55 6.68746 17 6.24215 17 5.70777V5.68798C17 5.15361 16.55 4.70829 16.01 4.70829H10V3.71871C10 3.17444 9.55 2.72913 9 2.72913C8.45 2.72913 8 3.17444 8 3.71871V4.70829H1.99C1.45 4.70829 1 5.15361 1 5.68798C1 6.23225 1.45 6.66767 1.99 6.66767H12.17C11.5 8.58746 10.44 10.3984 9 11.9817C8.19 11.101 7.51 10.1411 6.94 9.13174C6.78 8.84476 6.49 8.66663 6.16 8.66663C5.47 8.66663 5.03 9.40882 5.37 10.0026C6 11.1208 6.77 12.1896 7.67 13.1791L3.3 17.4442C2.9 17.8302 2.9 18.4635 3.3 18.8495C3.69 19.2354 4.32 19.2354 4.72 18.8495L9 14.6041L11.02 16.6031C11.53 17.1078 12.4 16.9198 12.65 16.2567ZM17.5 10.6458C16.9 10.6458 16.36 11.0119 16.15 11.576L12.48 21.2739C12.24 21.8776 12.7 22.5208 13.35 22.5208C13.74 22.5208 14.09 22.2833 14.23 21.9172L15.12 19.5521H19.87L20.77 21.9172C20.91 22.2734 21.26 22.5208 21.65 22.5208C22.3 22.5208 22.76 21.8776 22.53 21.2739L18.86 11.576C18.64 11.0119 18.1 10.6458 17.5 10.6458ZM15.88 17.5729L17.5 13.288L19.12 17.5729H15.88Z" fill="url(#paint0_linear_8_224)"/>
</g>
<defs>
<linearGradient id="paint0_linear_8_224" x1="11.795" y1="2.72913" x2="11.795" y2="22.5208" gradientUnits="userSpaceOnUse">
<stop stop-color="#701CDA" stop-opacity="0.83"/>
<stop offset="1" stop-color="#EF39FF" stop-opacity="0.89"/>
</linearGradient>
<clipPath id="clip0_8_224">
<rect width="24" height="23.75" fill="white" transform="translate(0 0.75)"/>
</clipPath>
</defs>
</svg>
