<svg width="24" height="18" viewBox="0 0 24 18" fill="none" xmlns="http://www.w3.org/2000/svg">
<path d="M22 0H2C0.9 0 0 0.880737 0 1.95719V15.6576C0 16.734 0.9 17.6147 2 17.6147H22C23.1 17.6147 23.99 16.734 23.99 15.6576L24 1.95719C24 0.880737 23.1 0 22 0ZM22 15.6576H2V1.95719H22V15.6576ZM19.01 14.6692L21 12.7218L19.49 10.7646H17.85C17.63 10.1481 17.5 9.49239 17.5 8.80737C17.5 8.12235 17.63 7.46669 17.85 6.85018H19.49L21 4.89298L19.01 2.94558C17.7 3.9046 16.73 5.26485 16.28 6.85018C16.1 7.47648 16 8.13214 16 8.80737C16 9.4826 16.1 10.1383 16.28 10.7646C16.73 12.3401 17.7 13.7101 19.01 14.6692ZM9 8.80737C10.65 8.80737 12 7.48627 12 5.87158C12 4.2569 10.65 2.93579 9 2.93579C7.35 2.93579 6 4.2569 6 5.87158C6 7.48627 7.35 8.80737 9 8.80737ZM9 4.89298C9.55 4.89298 10 5.33335 10 5.87158C10 6.40981 9.55 6.85018 9 6.85018C8.45 6.85018 8 6.40981 8 5.87158C8 5.33335 8.45 4.89298 9 4.89298ZM15 13.2991C15 10.8526 11.03 9.79576 9 9.79576C6.97 9.79576 3 10.8526 3 13.2991V14.679H15V13.2991ZM5.48 12.7218C6.22 12.2325 7.7 11.7432 9 11.7432C10.3 11.7432 11.77 12.2227 12.52 12.7218H5.48Z" fill="url(#paint0_linear_12_261)"/>
<defs>
<linearGradient id="paint0_linear_12_261" x1="12" y1="0" x2="12" y2="17.6147" gradientUnits="userSpaceOnUse">
<stop stop-color="#701CDA" stop-opacity="0.83"/>
<stop offset="1" stop-color="#EF39FF" stop-opacity="0.89"/>
</linearGradient>
</defs>
</svg>
